<?xml version="1.0" encoding="UTF-8"?><svg xmlns="http://www.w3.org/2000/svg" viewBox="0 0 314 105.93"><path d="M14.44,60.01V11.98H30.79c4.82,0,12.89,.65,19.08,6.62,5.62,5.4,6.7,12.31,6.7,17.5,0,6.34-1.58,11.95-6.26,16.63-3.82,3.82-10.22,7.27-18.43,7.27H14.44Zm12.46-10.58h2.52c3.02,0,7.27-.29,10.51-3.46,1.58-1.51,3.67-4.54,3.67-9.87,0-4.46-1.37-8.28-3.74-10.51-2.95-2.74-6.84-3.02-9.94-3.02h-3.02v26.86Z"/><path d="M69.16,7.95c3.6,0,6.48,2.88,6.48,6.48s-2.88,6.48-6.48,6.48-6.48-2.88-6.48-6.48,2.88-6.48,6.48-6.48Zm5.76,19.87V60.01h-11.52V27.82h11.52Z"/><path d="M107.68,27.82h11.52V60.01h-11.52v-3.53c-2.66,3.67-6.84,4.61-10.01,4.61-3.46,0-7.7-1.01-11.59-5.11-3.1-3.31-4.61-6.98-4.61-11.81,0-6.05,2.38-10.3,4.97-12.89,2.74-2.74,6.98-4.54,11.59-4.54,5.18,0,8.28,2.66,9.65,4.18v-3.1Zm-12.1,10.8c-1.58,1.51-2.3,3.6-2.3,5.26,0,1.87,.79,3.89,2.23,5.26,1.22,1.15,3.24,2.16,5.18,2.16s3.74-.79,5.18-2.23c1.01-1.01,2.16-2.59,2.16-5.18,0-1.51-.43-3.53-2.23-5.26-1.08-1.01-2.74-2.09-5.18-2.09-1.44,0-3.38,.5-5.04,2.09Z"/><path d="M138.64,7.52V30.92c2.09-2.23,5.18-4.18,9.58-4.18,3.96,0,8.21,1.3,11.38,4.32,2.95,2.81,5.26,7.27,5.26,12.75,0,5.11-1.94,9.65-5.18,12.82-3.02,2.95-6.7,4.46-11.31,4.46-2.23,0-6.48-.43-9.72-4.61v3.53h-11.52V7.52h11.52Zm12.17,41.62c1.51-1.51,2.23-3.38,2.23-5.04,0-2.16-.94-4.18-2.23-5.47-1.01-1.01-2.66-2.09-5.11-2.09-2.16,0-3.96,.79-5.26,2.16-1.15,1.22-2.16,3.38-2.16,5.18,0,1.94,.94,4.1,2.45,5.47,1.22,1.08,3.1,1.94,4.97,1.94,1.66,0,3.53-.58,5.11-2.16Z"/><path d="M205.6,46.04h-23.98c0,1.73,.65,4.03,2.02,5.4,.72,.72,2.16,1.58,4.75,1.58,.29,0,2.3-.07,3.74-.86,.72-.43,1.51-1.15,2.02-2.16h11.02c-.5,1.8-1.51,4.32-3.89,6.62-2.38,2.3-6.12,4.46-13.1,4.46-4.25,0-9.36-.94-13.32-4.9-2.09-2.09-4.75-6.05-4.75-12.17,0-5.4,2.02-9.72,4.82-12.46,2.66-2.59,6.84-4.68,13.18-4.68,3.74,0,8.57,.79,12.39,4.39,4.54,4.32,5.11,9.94,5.11,13.54v1.22Zm-10.58-6.62c-.29-1.22-1.01-2.59-1.87-3.46-1.51-1.51-3.6-1.73-4.75-1.73-1.94,0-3.46,.5-4.68,1.73-.79,.86-1.51,2.02-1.73,3.46h13.03Z"/><path d="M224.97,37.26v22.75h-11.52v-22.75h-3.67v-9.43h3.67v-10.58h11.52v10.58h6.55v9.43h-6.55Z"/><path d="M269.97,46.04h-23.98c0,1.73,.65,4.03,2.02,5.4,.72,.72,2.16,1.58,4.75,1.58,.29,0,2.3-.07,3.74-.86,.72-.43,1.51-1.15,2.02-2.16h11.02c-.5,1.8-1.51,4.32-3.89,6.62-2.38,2.3-6.12,4.46-13.1,4.46-4.25,0-9.36-.94-13.32-4.9-2.09-2.09-4.75-6.05-4.75-12.17,0-5.4,2.02-9.72,4.82-12.46,2.66-2.59,6.84-4.68,13.18-4.68,3.74,0,8.57,.79,12.39,4.39,4.54,4.32,5.11,9.94,5.11,13.54v1.22Zm-10.58-6.62c-.29-1.22-1.01-2.59-1.87-3.46-1.51-1.51-3.6-1.73-4.75-1.73-1.94,0-3.46,.5-4.68,1.73-.79,.86-1.51,2.02-1.73,3.46h13.03Z"/><path d="M278.68,49.35c1.37,1.01,3.02,1.87,4.61,2.38,1.44,.5,3.24,.79,4.46,.79,.86,0,2.23-.22,2.95-.86,.5-.5,.58-.94,.58-1.51,0-.5-.07-1.01-.58-1.44-.72-.65-1.87-.86-3.02-1.15l-3.02-.72c-1.58-.36-3.89-.94-5.62-2.81-1.22-1.3-2.09-3.1-2.09-5.54,0-3.1,1.22-5.98,3.02-7.85,2.45-2.52,6.77-3.89,11.52-3.89s8.42,1.3,10.3,2.09l-3.89,7.34c-1.58-.72-3.96-1.58-6.05-1.58-1.15,0-1.94,.22-2.66,.65-.65,.36-1.01,.86-1.01,1.58,0,1.01,.65,1.51,1.37,1.8,1.08,.43,2.02,.43,3.82,.94l2.09,.58c1.51,.43,3.82,1.58,4.75,2.52,1.58,1.51,2.45,4.03,2.45,6.41,0,3.89-1.66,6.48-3.24,7.99-3.74,3.74-9.22,4.03-11.88,4.03-2.88,0-7.42-.36-12.96-3.74l4.1-7.99Z"/><path d="M27.88,73.17h-8.78v4.66h7.98v6.18h-7.98v11.01h-7.27v-28.02H27.88v6.18Z"/><path d="M50.47,92.53c-2.48,2.44-5.38,3.11-8.4,3.11-2.73,0-5.76-.55-8.36-3.11-2.06-2.02-2.9-4.41-2.9-6.93,0-3.36,1.51-5.54,2.9-6.89,1.55-1.51,4.28-3.11,8.36-3.11s6.85,1.64,8.4,3.11c1.39,1.34,2.9,3.53,2.9,6.89,0,2.52-.84,4.92-2.9,6.93Zm-11.38-10c-.84,.8-1.3,1.97-1.3,3.07s.55,2.23,1.3,2.98c.8,.8,1.89,1.26,3.02,1.26s2.18-.46,2.98-1.26c.84-.8,1.3-1.89,1.3-2.98,0-1.01-.46-2.23-1.3-3.07-.76-.71-1.93-1.22-2.98-1.22s-2.27,.5-3.02,1.22Z"/><path d="M76.13,92.53c-2.48,2.44-5.38,3.11-8.4,3.11-2.73,0-5.76-.55-8.36-3.11-2.06-2.02-2.9-4.41-2.9-6.93,0-3.36,1.51-5.54,2.9-6.89,1.55-1.51,4.29-3.11,8.36-3.11s6.85,1.64,8.4,3.11c1.39,1.34,2.9,3.53,2.9,6.89,0,2.52-.84,4.92-2.9,6.93Zm-11.38-10c-.84,.8-1.3,1.97-1.3,3.07s.55,2.23,1.3,2.98c.8,.8,1.89,1.26,3.02,1.26s2.18-.46,2.98-1.26c.84-.8,1.3-1.89,1.3-2.98,0-1.01-.46-2.23-1.3-3.07-.76-.71-1.93-1.22-2.98-1.22s-2.27,.5-3.02,1.22Z"/><path d="M104.15,95.01h-6.72v-2.06c-1.89,2.44-4.37,2.69-5.67,2.69-2.69,0-4.83-.88-6.6-2.6-1.89-1.85-3.02-4.5-3.02-7.48,0-3.19,1.34-5.8,3.07-7.44,1.85-1.76,4.33-2.52,6.64-2.52,2.56,0,4.37,1.13,5.59,2.44v-13.65h6.72v30.62Zm-7.94-6.22c.88-.8,1.43-2.06,1.43-3.19,0-1.05-.59-2.31-1.26-3.02-.76-.8-1.81-1.26-3.07-1.26-1.43,0-2.39,.63-2.98,1.22-.76,.76-1.3,1.93-1.3,3.19,0,.97,.42,2.06,1.3,2.94s2.02,1.26,2.98,1.26c1.09,0,2.18-.5,2.9-1.13Z"/><path d="M119.18,95.01v-28.02h9.54c2.81,0,7.52,.38,11.13,3.86,3.28,3.15,3.91,7.18,3.91,10.21,0,3.7-.92,6.97-3.65,9.7-2.23,2.23-5.97,4.24-10.75,4.24h-10.17Zm7.27-6.18h1.47c1.76,0,4.24-.17,6.13-2.02,.92-.88,2.14-2.65,2.14-5.75,0-2.6-.8-4.83-2.18-6.13-1.72-1.6-3.99-1.76-5.8-1.76h-1.76v15.67Z"/><path d="M162.27,76.23h6.72v18.78h-6.72v-2.06c-1.55,2.14-3.99,2.69-5.84,2.69-2.02,0-4.49-.59-6.76-2.98-1.81-1.93-2.69-4.07-2.69-6.89,0-3.53,1.39-6.01,2.9-7.52,1.6-1.6,4.07-2.65,6.76-2.65,3.02,0,4.83,1.55,5.63,2.44v-1.81Zm-7.06,6.3c-.92,.88-1.34,2.1-1.34,3.07,0,1.09,.46,2.27,1.3,3.07,.71,.67,1.89,1.26,3.02,1.26s2.18-.46,3.02-1.3c.59-.59,1.26-1.51,1.26-3.02,0-.88-.25-2.06-1.3-3.07-.63-.59-1.6-1.22-3.02-1.22-.84,0-1.97,.29-2.94,1.22Z"/><path d="M181.05,81.74v13.27h-6.72v-13.27h-2.14v-5.5h2.14v-6.18h6.72v6.18h3.82v5.5h-3.82Z"/><path d="M201.92,76.23h6.72v18.78h-6.72v-2.06c-1.55,2.14-3.99,2.69-5.84,2.69-2.02,0-4.49-.59-6.76-2.98-1.81-1.93-2.69-4.07-2.69-6.89,0-3.53,1.39-6.01,2.9-7.52,1.6-1.6,4.07-2.65,6.76-2.65,3.02,0,4.83,1.55,5.63,2.44v-1.81Zm-7.06,6.3c-.92,.88-1.34,2.1-1.34,3.07,0,1.09,.46,2.27,1.3,3.07,.71,.67,1.89,1.26,3.02,1.26s2.18-.46,3.02-1.3c.59-.59,1.26-1.51,1.26-3.02,0-.88-.25-2.06-1.3-3.07-.63-.59-1.6-1.22-3.02-1.22-.84,0-1.97,.29-2.94,1.22Z"/><path d="M219.98,64.39v13.65c1.22-1.3,3.02-2.44,5.59-2.44,2.31,0,4.79,.76,6.64,2.52,1.72,1.64,3.07,4.24,3.07,7.44,0,2.98-1.13,5.63-3.02,7.48-1.76,1.72-3.91,2.6-6.6,2.6-1.3,0-3.78-.25-5.67-2.69v2.06h-6.72v-30.62h6.72Zm7.1,24.28c.88-.88,1.3-1.97,1.3-2.94,0-1.26-.55-2.44-1.3-3.19-.59-.59-1.55-1.22-2.98-1.22-1.26,0-2.31,.46-3.07,1.26-.67,.71-1.26,1.97-1.26,3.02,0,1.13,.55,2.39,1.43,3.19,.71,.63,1.81,1.13,2.9,1.13,.97,0,2.06-.34,2.98-1.26Z"/><path d="M253.67,76.23h6.72v18.78h-6.72v-2.06c-1.55,2.14-3.99,2.69-5.84,2.69-2.02,0-4.49-.59-6.76-2.98-1.81-1.93-2.69-4.07-2.69-6.89,0-3.53,1.39-6.01,2.9-7.52,1.6-1.6,4.07-2.65,6.76-2.65,3.02,0,4.83,1.55,5.63,2.44v-1.81Zm-7.06,6.3c-.92,.88-1.34,2.1-1.34,3.07,0,1.09,.46,2.27,1.3,3.07,.71,.67,1.89,1.26,3.02,1.26s2.18-.46,3.02-1.3c.59-.59,1.26-1.51,1.26-3.02,0-.88-.25-2.06-1.3-3.07-.63-.59-1.6-1.22-3.02-1.22-.84,0-1.97,.29-2.94,1.22Z"/><path d="M266.22,88.79c.8,.59,1.76,1.09,2.69,1.39,.84,.29,1.89,.46,2.6,.46,.5,0,1.3-.13,1.72-.5,.29-.29,.34-.55,.34-.88,0-.29-.04-.59-.34-.84-.42-.38-1.09-.5-1.76-.67l-1.76-.42c-.92-.21-2.27-.55-3.28-1.64-.71-.76-1.22-1.81-1.22-3.23,0-1.81,.71-3.49,1.76-4.58,1.43-1.47,3.95-2.27,6.72-2.27s4.92,.76,6.01,1.22l-2.27,4.29c-.92-.42-2.31-.92-3.53-.92-.67,0-1.13,.13-1.55,.38-.38,.21-.59,.5-.59,.92,0,.59,.38,.88,.8,1.05,.63,.25,1.18,.25,2.23,.55l1.22,.34c.88,.25,2.23,.92,2.77,1.47,.92,.88,1.43,2.35,1.43,3.74,0,2.27-.97,3.78-1.89,4.66-2.18,2.18-5.38,2.35-6.93,2.35-1.68,0-4.33-.21-7.56-2.18l2.39-4.66Z"/><path d="M303.56,86.86h-13.99c0,1.01,.38,2.35,1.18,3.15,.42,.42,1.26,.92,2.77,.92,.17,0,1.34-.04,2.18-.5,.42-.25,.88-.67,1.18-1.26h6.43c-.29,1.05-.88,2.52-2.27,3.86s-3.57,2.6-7.65,2.6c-2.48,0-5.46-.55-7.77-2.86-1.22-1.22-2.77-3.53-2.77-7.1,0-3.15,1.18-5.67,2.81-7.27,1.55-1.51,3.99-2.73,7.69-2.73,2.18,0,5,.46,7.23,2.56,2.65,2.52,2.98,5.8,2.98,7.9v.71Zm-6.18-3.86c-.17-.71-.59-1.51-1.09-2.02-.88-.88-2.1-1.01-2.77-1.01-1.13,0-2.02,.29-2.73,1.01-.46,.5-.88,1.18-1.01,2.02h7.6Z"/></svg>